<?xml version="1.0" encoding="UTF-8"?>
<!DOCTYPE svg PUBLIC "-//W3C//DTD SVG 1.1//EN" "http://www.w3.org/Graphics/SVG/1.1/DTD/svg11.dtd">
<svg xmlns="http://www.w3.org/2000/svg" version="1.1" width="512px" height="512px" style="shape-rendering:geometricPrecision; text-rendering:geometricPrecision; image-rendering:optimizeQuality; fill-rule:evenodd; clip-rule:evenodd" xmlns:xlink="http://www.w3.org/1999/xlink">
<g><path style="opacity:1" fill="current" d="M 511.5,380.5 C 511.5,391.167 511.5,401.833 511.5,412.5C 508.331,415.112 505.164,415.112 502,412.5C 501.117,318.539 461.95,245.705 384.5,194C 360.078,179.207 333.911,168.707 306,162.5C 305.167,178.844 305.334,195.177 306.5,211.5C 309.684,212.216 311.184,214.216 311,217.5C 311.409,231.67 313.076,245.67 316,259.5C 318.914,250.673 321.747,241.84 324.5,233C 321.5,232.667 318.5,232.333 315.5,232C 311.555,228.265 311.889,224.932 316.5,222C 319.167,221.833 321.833,221.667 324.5,221.5C 328.373,221.299 332.039,221.966 335.5,223.5C 340.128,237.011 344.295,250.678 348,264.5C 346.73,272.655 347.397,280.655 350,288.5C 350.689,289.357 351.522,290.023 352.5,290.5C 356.16,279.854 359.827,269.187 363.5,258.5C 360.553,257.679 357.553,257.179 354.5,257C 351.833,254 351.833,251 354.5,248C 361.218,247.205 367.884,247.372 374.5,248.5C 378.952,259.685 383.118,271.018 387,282.5C 387.333,282.833 387.667,283.167 388,283.5C 388.374,282.584 388.874,281.75 389.5,281C 394.5,280.333 399.5,280.333 404.5,281C 411.238,294.867 417.405,309.034 423,323.5C 428.167,334.5 433.333,345.5 438.5,356.5C 437.872,358.258 436.872,359.758 435.5,361C 431.514,361.499 427.514,361.666 423.5,361.5C 421.802,378.116 424.135,394.116 430.5,409.5C 429.872,411.258 428.872,412.758 427.5,414C 383.5,414.667 339.5,414.667 295.5,414C 293.484,412.972 292.484,411.305 292.5,409C 294.403,392.112 290.57,376.612 281,362.5C 264.907,348.348 247.074,345.848 227.5,355C 214.382,361.804 207.215,372.637 206,387.5C 205.355,394.35 205.522,401.183 206.5,408C 206.695,410.352 206.028,412.352 204.5,414C 158.5,414.667 112.5,414.667 66.5,414C 65.2815,412.562 64.6148,410.895 64.5,409C 67.4421,392.572 69.7755,376.072 71.5,359.5C 66.9592,359.948 62.6259,359.281 58.5,357.5C 58.1667,356.333 57.8333,355.167 57.5,354C 58.6245,349.246 60.4578,344.746 63,340.5C 70.7065,326.253 78.5398,312.086 86.5,298C 83.1667,297.667 79.8333,297.333 76.5,297C 73.8333,294 73.8333,291 76.5,288C 83.8333,287.333 91.1667,287.333 98.5,288C 104.295,300.425 109.962,312.925 115.5,325.5C 117.353,326.76 119.186,326.76 121,325.5C 122.889,314.334 124.722,303.167 126.5,292C 125.389,288.945 123.889,286.112 122,283.5C 121.333,281.5 121.333,279.5 122,277.5C 129.88,264.242 137.38,250.742 144.5,237C 141.167,236.667 137.833,236.333 134.5,236C 131.833,233 131.833,230 134.5,227C 141.833,226.333 149.167,226.333 156.5,227C 164.183,242.866 172.516,258.366 181.5,273.5C 186.033,262.935 190.7,252.435 195.5,242C 198.956,240.877 201.79,241.71 204,244.5C 206,251.833 208,259.167 210,266.5C 210.667,261.833 210.667,257.167 210,252.5C 207.827,247.489 205.661,242.489 203.5,237.5C 207.767,225.034 212.434,212.7 217.5,200.5C 213.878,199.675 210.211,199.175 206.5,199C 203.833,196 203.833,193 206.5,190C 213.5,189.333 220.5,189.333 227.5,190C 228.333,190.833 229.167,191.667 230,192.5C 233.471,201.912 237.137,211.246 241,220.5C 243.038,215.592 245.205,210.759 247.5,206C 248.729,205.219 250.062,204.719 251.5,204.5C 254.022,205.762 256.689,206.429 259.5,206.5C 259.5,191.833 259.5,177.167 259.5,162.5C 256.208,162.88 253.875,161.547 252.5,158.5C 167.866,161.228 101.033,196.895 52,265.5C 22.724,310.008 8.39068,359.008 9,412.5C 5.83593,415.112 2.66926,415.112 -0.5,412.5C -0.5,402.167 -0.5,391.833 -0.5,381.5C 11.1009,285.106 60.1009,214.939 146.5,171C 181.808,155.172 218.808,146.672 257.5,145.5C 262.879,132.525 268.546,119.692 274.5,107C 270.778,106.762 267.111,106.262 263.5,105.5C 260.68,102.284 261.013,99.4507 264.5,97C 271.5,96.3333 278.5,96.3333 285.5,97C 294.825,115.153 303.492,133.653 311.5,152.5C 407.549,178.049 471.049,238.049 502,332.5C 506.285,348.423 509.452,364.423 511.5,380.5 Z M 282.5,115.5 C 288.263,127.531 293.93,139.698 299.5,152C 297.152,152.11 295.652,153.277 295,155.5C 294.333,175.5 294.333,195.5 295,215.5C 296,217.833 297.667,219.5 300,220.5C 301.094,232.529 302.427,244.529 304,256.5C 306.436,267.542 311.603,277.042 319.5,285C 324.975,287.596 328.308,285.929 329.5,280C 329.007,274.385 328.007,268.885 326.5,263.5C 327.974,258.411 329.641,253.411 331.5,248.5C 336.053,257.367 337.72,266.701 336.5,276.5C 336.405,290.533 342.572,300.533 355,306.5C 357.305,306.516 358.972,305.516 360,303.5C 363.868,292.229 367.535,280.895 371,269.5C 376.273,285.319 381.94,300.986 388,316.5C 393.436,318.452 397.436,316.786 400,311.5C 401.197,308.911 402.197,306.244 403,303.5C 409.154,319.125 415.987,334.459 423.5,349.5C 420.373,350.185 417.373,351.185 414.5,352.5C 413.811,354.444 413.311,356.444 413,358.5C 412.333,367.833 412.333,377.167 413,386.5C 413.802,392.542 415.302,398.375 417.5,404C 379.501,404.5 341.501,404.667 303.5,404.5C 304.889,382.153 297.556,363.319 281.5,348C 267.931,339.87 253.265,337.204 237.5,340C 205.081,349.306 191.081,370.806 195.5,404.5C 155.833,404.5 116.167,404.5 76.5,404.5C 78.9094,388.225 80.9094,371.892 82.5,355.5C 81.6331,349.213 77.9664,346.713 71.5,348C 78.9527,333.592 86.7861,319.425 95,305.5C 99.3712,315.741 103.871,325.907 108.5,336C 114.723,337.581 121.056,337.915 127.5,337C 128.308,336.692 128.975,336.192 129.5,335.5C 132.752,321.078 135.418,306.578 137.5,292C 136.832,288.68 135.665,285.513 134,282.5C 133.333,281.167 133.333,279.833 134,278.5C 140.333,267.167 146.667,255.833 153,244.5C 158.556,256.614 164.89,268.281 172,279.5C 172.513,285.614 173.513,291.614 175,297.5C 179.529,300.7 182.862,299.7 185,294.5C 189.057,284.052 193.391,273.718 198,263.5C 199.439,269.813 201.272,275.98 203.5,282C 207.741,283.457 212.074,283.791 216.5,283C 218.333,282.5 219.5,281.333 220,279.5C 222.309,267.72 221.975,256.054 219,244.5C 217.877,241.751 216.377,239.251 214.5,237C 218.191,228.263 221.691,219.43 225,210.5C 228.781,220.514 232.948,230.347 237.5,240C 239.902,240.814 242.235,240.647 244.5,239.5C 247.283,233.992 249.783,228.326 252,222.5C 254.072,227.143 257.572,228.643 262.5,227C 264.263,223.757 264.929,220.257 264.5,216.5C 266.39,216.703 267.89,216.037 269,214.5C 269.667,194.5 269.667,174.5 269,154.5C 267.978,153.646 267.145,152.646 266.5,151.5C 271.848,139.474 277.181,127.474 282.5,115.5 Z M 389.5,291.5 C 391.288,290.378 393.288,290.211 395.5,291C 394.594,293.447 393.761,295.947 393,298.5C 391.724,296.142 390.558,293.808 389.5,291.5 Z"/></g>
</svg>
